<svg width="81" height="68" viewBox="0 0 81 68" fill="none" xmlns="http://www.w3.org/2000/svg">
<path d="M77.3014 4.43823H60.0411V6.28755H77.3014C78.1644 6.28755 78.9041 7.02727 78.9041 7.89029V49.8081H1.84932V7.89029C1.84932 7.02727 2.58904 6.28755 3.32877 6.28755H28.6027V4.43823H3.32877C1.47945 4.43823 0 6.04097 0 7.89029V53.9999C0 55.8492 1.47945 57.4519 3.45205 57.4519H28.8493V65.2191H24.2877V67.0684H56.7123V65.2191H52.1507V57.4519H77.548C79.3973 57.4519 81 55.9725 81 53.9999V7.89029C80.7534 6.04097 79.1507 4.43823 77.3014 4.43823ZM50.0548 65.0958H30.5753V57.3286H50.0548V65.0958ZM77.3014 55.4793H3.32877C2.46575 55.4793 1.84932 54.7396 1.84932 53.8766V51.5341H78.9041V53.8766C78.9041 54.8629 78.1644 55.4793 77.3014 55.4793Z" fill="white"/>
<path d="M62.2603 36.2466V40.8083C62.2603 44.2603 65.0959 46.9727 68.4247 46.9727C71.8767 46.9727 74.5891 44.137 74.5891 40.8083V36.2466C74.5891 33.2877 72.4932 30.822 69.6575 30.2055C70.8904 26.6302 70.1507 25.5206 68.9178 24.1644C68.1781 23.4247 67.4384 22.5617 67.4384 20.0959H65.5891C65.5891 23.3014 66.6986 24.5343 67.5617 25.3973C68.4247 26.2603 68.9178 26.8768 67.6849 30.0822C64.726 30.4521 62.2603 33.0412 62.2603 36.2466ZM72.7397 36.2466V40.8083C72.7397 43.1507 70.7671 45.1233 68.4247 45.1233C66.0822 45.1233 64.1096 43.1507 64.1096 40.8083V36.2466C64.1096 33.9042 66.0822 31.9316 68.4247 31.9316C70.7671 31.9316 72.7397 33.9042 72.7397 36.2466Z" fill="white"/>
<path d="M69.411 34.0273H67.5616V36.2465H69.411V34.0273Z" fill="white"/>
<path d="M25.8904 43.1506L31.5616 38.0958L25.8904 33.1643L24.6575 34.5205L28.726 38.0958L24.6575 41.6712L25.8904 43.1506Z" fill="white"/>
<path d="M11.9589 33.1643L6.41095 38.0958L11.9589 43.1506L13.1918 41.6712L9.12328 38.0958L13.1918 34.5205L11.9589 33.1643Z" fill="white"/>
<path d="M15.6093 46.9869L23.9694 30.0781L22.3117 29.2585L13.9516 46.1673L15.6093 46.9869Z" fill="white"/>
<path d="M31.1918 12.9452L27.863 13.5616V19.2329L31.1918 19.8493C31.5617 21.0822 31.9315 22.1918 32.548 23.1781L30.5754 26.0137L34.6438 29.9589L37.4795 27.9863C38.5891 28.6027 39.6986 29.0959 40.8082 29.3425L41.4247 32.6712H47.0959L47.7123 29.3425C48.9452 28.9726 50.0548 28.6027 51.0411 27.9863L53.8767 29.9589L57.8219 25.8904L55.8493 23.0548C56.4658 22.0685 56.9589 20.8356 57.2055 19.726L60.5343 19.1096V13.4384L57.2055 12.8219C56.8356 11.589 56.4658 10.4795 55.8493 9.49315L57.8219 6.65753L53.7534 2.71233L50.9178 4.68493C49.8082 4.06849 48.6986 3.57534 47.5891 3.32877L46.9726 0H41.3014L40.6849 3.32877C39.5754 3.69863 38.3425 4.06849 37.3562 4.68493L34.5206 2.71233L30.5754 6.78082L32.548 9.61644C31.9315 10.6027 31.4384 11.8356 31.1918 12.9452ZM32.7945 13.9315C33.0411 12.5753 33.6575 11.2192 34.3973 10.1096L34.7671 9.61644L33.0411 7.0274L34.7671 5.17808L37.3562 6.90411L37.8493 6.53425C39.0822 5.79452 40.3151 5.17808 41.6712 4.93151L42.2877 4.80822L42.7808 1.72603H45.3699L45.9863 4.80822L46.6027 4.93151C47.9589 5.17808 49.3151 5.79452 50.548 6.53425L51.0411 6.90411L53.6301 5.17808L55.4795 7.0274L53.7534 9.61644L54.1233 10.1096C54.863 11.3425 55.4795 12.5753 55.726 13.9315L55.8493 14.5479L58.9315 15.0411V17.6301L55.8493 18.2466L55.726 18.7397C55.4795 20.0959 54.863 21.4521 54.1233 22.6849L53.7534 23.1781L55.4795 25.7671L53.6301 27.6164L51.0411 25.8904L50.548 26.2603C49.4384 27 48.0822 27.6164 46.726 27.863H46.1096L45.6164 30.9452H43.0274L42.411 27.863L41.7945 27.7397C40.4384 27.4932 39.0822 26.8767 37.9726 26.137L37.4795 25.7671L34.8904 27.4932L33.0411 25.6438L34.7671 23.0548L34.3973 22.5616C33.6575 21.3288 33.0411 20.0959 32.7945 18.7397L32.6712 18.1233L29.589 17.6301V15.0411L32.6712 14.4247L32.7945 13.9315Z" fill="white"/>
<path d="M44.2603 23.7945C48.3288 23.7945 51.6575 20.4658 51.6575 16.3973C51.6575 12.3288 48.3288 9 44.2603 9C40.1918 9 36.863 12.3288 36.863 16.3973C36.863 20.4658 40.1918 23.7945 44.2603 23.7945ZM44.2603 10.8493C47.3425 10.8493 49.8082 13.3151 49.8082 16.3973C49.8082 19.4795 47.3425 21.9452 44.2603 21.9452C41.1781 21.9452 38.7123 19.4795 38.7123 16.3973C38.7123 13.3151 41.1781 10.8493 44.2603 10.8493Z" fill="white"/>
</svg>
