<svg width="84" height="66" viewBox="0 0 84 66" fill="none" xmlns="http://www.w3.org/2000/svg">
<path d="M41.634 33.635C36.549 33.635 32.714 37.252 32.714 42.048C32.714 44.648 33.788 46.134 34.931 47.715C35.729 48.819 36.634 50.07 37.344 51.95C37.403 52.138 37.723 53.34 37.819 53.823C37.912 54.291 38.322 54.629 38.8 54.629C38.801 54.629 38.801 54.629 38.802 54.629L41.632 54.623L44.468 54.629C44.469 54.629 44.469 54.629 44.47 54.629C44.946 54.629 45.357 54.293 45.45 53.826C45.544 53.358 45.861 52.157 45.925 51.946C46.638 50.068 47.542 48.815 48.344 47.704C49.483 46.132 50.558 44.647 50.558 42.048C50.558 37.253 46.723 33.635 41.634 33.635ZM46.724 46.535C45.852 47.741 44.864 49.108 44.062 51.231C44.043 51.272 44.027 51.314 44.014 51.358C43.968 51.508 43.813 52.086 43.677 52.628L41.632 52.624L39.594 52.628C39.456 52.079 39.299 51.5 39.254 51.357C39.247 51.336 39.221 51.26 39.214 51.241C38.413 49.121 37.427 47.756 36.546 46.534C35.483 45.065 34.714 44.004 34.714 42.05C34.714 38.394 37.689 35.637 41.638 35.637C45.583 35.637 48.558 38.394 48.558 42.05C48.558 43.999 47.79 45.062 46.724 46.535ZM43.136 55.883H40.136C39.583 55.883 39.136 56.33 39.136 56.883C39.136 57.436 39.583 57.883 40.136 57.883H43.136C43.689 57.883 44.136 57.436 44.136 56.883C44.136 56.33 43.689 55.883 43.136 55.883ZM71.337 28.74V27.986C71.337 12.554 58.783 0 43.352 0H43.128C30.045 0 18.987 8.7 15.983 21.249C6.962 22.294 0 30.029 0 39.18V39.731C0 49.658 8.077 57.733 18.004 57.733H25.677C29.389 62.483 35.155 65.553 41.637 65.553C48.119 65.553 53.886 62.483 57.598 57.733H69.132C76.943 57.733 83.297 51.379 83.297 43.569V42.811C83.407 35.762 78.221 29.754 71.337 28.74ZM56.389 56.013C56.35 56.05 56.326 56.097 56.293 56.14C52.962 60.626 47.641 63.552 41.636 63.552C35.731 63.552 30.486 60.723 27.145 56.362C27.084 56.209 26.981 56.084 26.858 55.978C24.675 52.969 23.371 49.282 23.371 45.289C23.371 44.528 23.418 43.764 23.511 43.018C24.64 33.9 32.432 27.024 41.636 27.024C43.99 27.024 46.283 27.465 48.45 28.337C55.406 31.135 59.901 37.789 59.901 45.29C59.902 49.297 58.587 52.998 56.389 56.013ZM81.296 43.568C81.296 50.275 75.839 55.732 69.131 55.732H58.97C60.818 52.677 61.902 49.112 61.902 45.289C61.902 36.967 56.915 29.584 49.197 26.48C46.792 25.513 44.248 25.023 41.636 25.023C31.425 25.023 22.78 32.653 21.527 42.771C21.424 43.598 21.372 44.446 21.372 45.289C21.372 49.112 22.455 52.678 24.303 55.732H18.004C9.179 55.732 2 48.553 2 39.73V39.179C2 30.821 8.533 23.79 16.873 23.172C17.316 23.139 17.685 22.818 17.777 22.383C20.326 10.381 30.751 1.999 43.128 1.999H43.352C57.68 1.999 69.337 13.656 69.337 27.985V29.631C69.337 30.152 69.737 30.586 70.257 30.628C76.547 31.133 81.397 36.47 81.297 42.793V43.568H81.296Z" fill="white"/>
</svg>
