<svg width="97" height="67" viewBox="0 0 97 67" fill="none" xmlns="http://www.w3.org/2000/svg">
<path d="M15.6556 47C15.2944 47 15 46.7036 15 46.3394V9.66C15 9.2964 15.2944 9 15.6556 9H81.3444C81.7056 9 82 9.2964 82 9.66V46.3394C82 46.7036 81.7056 47 81.3444 47H15.6556ZM16.3123 45.6788H80.6877V10.3206H16.3123V45.6788Z" fill="white"/>
<path d="M4.4852 67C2.01176 67 0 65.0015 0 62.5457V57.4684C0 55.711 1.44005 54.2809 3.21021 54.2809H8.26354L7.98605 53.6097C7.82459 53.2195 7.74326 52.8127 7.74326 52.4005V3.18751C7.74326 1.43013 9.1833 0 10.9535 0H86.0465C87.8167 0 89.2567 1.43013 89.2567 3.18751V52.4005C89.2567 52.8127 89.1754 53.2195 89.0139 53.6097L88.7365 54.2809H93.7898C95.56 54.2809 97 55.711 97 57.4684V62.5457C97 65.0015 94.9882 67 92.5148 67H4.4852ZM3.21021 55.588C2.16605 55.588 1.31686 56.4314 1.31686 57.4684V62.5457C1.31686 64.2811 2.73896 65.6928 4.4852 65.6928H92.5148C94.261 65.6928 95.6831 64.2811 95.6831 62.5457V57.4684C95.6831 56.4314 94.8339 55.588 93.7898 55.588H59.5264L55.8976 59.7983C55.772 59.9438 55.5902 60.0269 55.3976 60.0269H41.6024C41.4098 60.0269 41.228 59.9438 41.1024 59.7989L37.4736 55.588H3.21021ZM41.905 58.7191H55.095L57.7945 55.588H39.2055L41.905 58.7191ZM10.9535 1.30719C9.90931 1.30719 9.06011 2.15054 9.06011 3.18751V52.4005C9.06011 53.4375 9.90931 54.2809 10.9535 54.2809H86.0465C87.0907 54.2809 87.9399 53.4375 87.9399 52.4005V3.18751C87.9399 2.15054 87.0907 1.30719 86.0465 1.30719H10.9535Z" fill="white"/>
<path d="M6.65439 62C6.29335 62 6 61.5511 6 60.9995C6 60.4489 6.29335 60 6.65439 60H9.34561C9.70665 60 10 60.4489 10 60.9995C10 61.5511 9.70665 62 9.34561 62H6.65439Z" fill="white"/>
<path d="M14.6534 62C14.2934 62 14 61.5511 14 60.9995C14 60.4489 14.2934 60 14.6534 60H17.3466C17.7066 60 18 60.4489 18 60.9995C18 61.5511 17.7066 62 17.3466 62H14.6534Z" fill="white"/>
<path d="M46.818 51C46.3667 51 46 50.7756 46 50.5002C46 50.2244 46.3667 50 46.818 50H50.182C50.6333 50 51 50.2244 51 50.5002C51 50.7756 50.6333 51 50.182 51H46.818Z" fill="white"/>
<path d="M48.3798 35C48.1706 35 48 34.7757 48 34.5C48 34.2243 48.1706 34 48.3798 34H48.6202C48.8294 34 49 34.2243 49 34.5C49 34.7757 48.8294 35 48.6202 35H48.3798Z" fill="white"/>
<path d="M55.4781 30C55.2147 30 55 29.7757 55 29.5C55 29.2243 55.2147 29 55.4781 29H56.5211C56.7853 29 57 29.2243 57 29.5C57 29.7757 56.7853 30 56.5211 30H55.4781Z" fill="white"/>
<path d="M55.4781 37C55.2147 37 55 36.7756 55 36.5002C55 36.2244 55.2147 36 55.4781 36H56.5211C56.7853 36 57 36.2244 57 36.5002C57 36.7756 56.7853 37 56.5211 37H55.4781Z" fill="white"/>
<path d="M48.5 42C40.6312 42 35.7427 40.9022 35.7427 39.1356L35.7451 31.4417L35.7332 31.2704L35.7427 23.7363C35.7427 22.0583 40.0855 20.9955 47.3609 20.8942L47.8433 20.8875V18.1347H43.6975C43.3357 18.1347 43.0408 17.8368 43.0408 17.4706V16.2305H35.6579C35.2949 16.2305 35 15.9326 35 15.5671C35 15.2009 35.2949 14.903 35.6579 14.903H43.0408V13.6635C43.0408 13.298 43.3357 13 43.6975 13H53.3025C53.6643 13 53.9592 13.298 53.9592 13.6635V14.903H61.3421C61.7051 14.903 62 15.2009 62 15.5671C62 15.9326 61.7051 16.2305 61.3421 16.2305H53.9592V17.4706C53.9592 17.8368 53.6643 18.1347 53.3025 18.1347H49.1567V20.8875L49.6391 20.8942C56.9145 20.9955 61.2573 22.0583 61.2573 23.7363L61.2549 31.4368L61.2704 31.6196L61.2573 39.1356C61.2573 40.9022 56.3688 42 48.5 42ZM37.0574 39.0988L37.2998 39.2417C38.2741 39.8166 42.0605 40.6718 48.5 40.6718C54.9372 40.6718 58.7247 39.8166 59.6991 39.2417L59.9426 39.0982V32.9737L59.2895 33.2071C56.5706 34.1788 51.9222 34.3827 48.5 34.3827C45.0778 34.3827 40.4294 34.1788 37.7105 33.2071L37.0574 32.9737V39.0988ZM37.0574 25.8908V31.3174L37.2998 31.4604C38.2741 32.0352 42.0605 32.8905 48.5 32.8905C54.9372 32.8905 58.7247 32.0352 59.6991 31.4604L59.9426 31.3168V25.1941L59.2919 25.4245L59.1068 25.4794C58.868 25.559 58.6184 25.6338 58.3557 25.7026L58.0501 25.7822C57.7098 25.863 57.3587 25.9384 56.9909 26.0054C56.5169 26.091 56.0978 26.1519 55.6715 26.208L55.3181 26.2502C54.9921 26.2895 54.6625 26.3244 54.3306 26.3558L53.9592 26.3902C53.5318 26.4264 53.1007 26.4589 52.6732 26.4843C52.1992 26.5126 51.7574 26.5325 51.3204 26.5482L49.6606 26.591C49.2582 26.5971 48.8678 26.6007 48.5 26.6007C48.1322 26.6007 46.9955 26.585 46.9955 26.585C46.6874 26.579 45.6808 26.5482 45.6808 26.5482C45.2426 26.5325 44.8008 26.5126 44.3542 26.4861C43.8993 26.4589 43.4682 26.4264 43.0396 26.3902L42.6682 26.3558C42.3375 26.3244 42.0079 26.2895 41.6807 26.2502L41.3261 26.2074C40.9022 26.1519 40.4831 26.091 40.0795 26.0192C39.6413 25.9384 39.2902 25.863 38.9499 25.7822L38.7207 25.7231C38.3816 25.6338 38.132 25.559 37.8932 25.4794L37.2508 25.2659L37.0574 25.8908ZM48.5 22.2133C42.1691 22.2133 39.0311 23.0197 38.2204 23.267L36.6371 23.7489L38.2251 24.2146C38.4687 24.287 38.6622 24.3406 38.8795 24.3937C39.1768 24.4661 39.4407 24.5222 39.7213 24.5771L39.8467 24.6012C40.1834 24.6651 40.4939 24.7188 40.8318 24.7707C41.1983 24.8256 41.5494 24.872 41.916 24.9161L42.1381 24.9426C42.519 24.9866 42.9214 25.027 43.3453 25.0644L43.559 25.0807C43.9566 25.1139 44.3721 25.1428 44.8044 25.1688L45.011 25.1808C45.4826 25.2068 45.9782 25.2267 46.4928 25.2418L46.722 25.2478C47.3704 25.2635 47.9221 25.2725 48.5 25.2725C49.0779 25.2725 49.6272 25.2635 50.1621 25.2508L50.5108 25.2418C51.0195 25.2267 51.5114 25.2068 51.9795 25.1814L52.1407 25.1718C52.6326 25.1422 53.0326 25.1145 53.4159 25.0837L53.5652 25.0711C54.0798 25.0276 54.4763 24.9872 54.8512 24.9438L55.0112 24.9245C55.4434 24.872 55.7778 24.828 56.087 24.7816C56.5073 24.7182 56.8118 24.6657 57.0984 24.6115L57.2309 24.5861C57.5629 24.5204 57.8256 24.4655 58.0572 24.4088C58.3366 24.34 58.5384 24.2851 58.7199 24.2303L60.2829 23.7598L58.7772 23.267C57.9677 23.0197 54.8309 22.2133 48.5 22.2133ZM44.3554 16.8066H52.6446V14.3276H44.3554V16.8066Z" fill="white"/>
</svg>
