<svg width="88" height="68" viewBox="0 0 88 68" fill="none" xmlns="http://www.w3.org/2000/svg">
<path d="M66.5 3.68817e-05H21.1C20.999 -0.000999657 20.899 0.0198236 20.8068 0.0610797C20.7147 0.102336 20.6325 0.163048 20.566 0.239047C20.4995 0.315046 20.4503 0.404532 20.4216 0.501366C20.3929 0.5982 20.3856 0.700088 20.4 0.800036V66.4C20.3985 66.596 20.4689 66.7856 20.5979 66.9331C20.7269 67.0806 20.9056 67.1756 21.1 67.2H66.5C66.6944 67.1756 66.8731 67.0806 67.0021 66.9331C67.1311 66.7856 67.2015 66.596 67.2 66.4V0.800036C67.2144 0.700088 67.2071 0.5982 67.1784 0.501366C67.1498 0.404532 67.1005 0.315046 67.034 0.239047C66.9675 0.163048 66.8853 0.102336 66.7932 0.0610797C66.701 0.0198236 66.601 -0.000999657 66.5 3.68817e-05ZM21.9 9.40004H65.7V60.1H21.9V9.40004ZM65.7 1.60004V7.80004H21.9V1.60004H65.7ZM21.9 65.6V61.7H65.7V65.6H21.9Z" fill="white"/>
<path d="M14.9 8.6H7.90001C7.68783 8.6 7.48435 8.51571 7.33432 8.36568C7.18429 8.21566 7.10001 8.01217 7.10001 7.8C7.10001 7.58783 7.18429 7.38434 7.33432 7.23431C7.48435 7.08428 7.68783 7 7.90001 7H14.9C15.1122 7 15.3157 7.08428 15.4657 7.23431C15.6157 7.38434 15.7 7.58783 15.7 7.8C15.7 8.01217 15.6157 8.21566 15.4657 8.36568C15.3157 8.51571 15.1122 8.6 14.9 8.6Z" fill="white"/>
<path d="M14.9 28.9H7.90001C7.68783 28.9 7.48435 28.8158 7.33432 28.6657C7.18429 28.5157 7.10001 28.3122 7.10001 28.1C7.10001 27.8879 7.18429 27.6844 7.33432 27.5344C7.48435 27.3843 7.68783 27.3 7.90001 27.3H14.9C15.1122 27.3 15.3157 27.3843 15.4657 27.5344C15.6157 27.6844 15.7 27.8879 15.7 28.1C15.7 28.3122 15.6157 28.5157 15.4657 28.6657C15.3157 28.8158 15.1122 28.9 14.9 28.9Z" fill="white"/>
<path d="M14.9 20.3001H9.40001C9.18783 20.3001 8.98435 20.2158 8.83432 20.0658C8.68429 19.9157 8.60001 19.7122 8.60001 19.5001C8.62173 19.2953 8.713 19.1042 8.85858 18.9586C9.00417 18.8131 9.19527 18.7218 9.40001 18.7001H14.9C15.1047 18.7218 15.2958 18.8131 15.4414 18.9586C15.587 19.1042 15.6783 19.2953 15.7 19.5001C15.7 19.7122 15.6157 19.9157 15.4657 20.0658C15.3157 20.2158 15.1122 20.3001 14.9 20.3001Z" fill="white"/>
<path d="M14.9 23.4H14.1C13.8878 23.4 13.6843 23.3158 13.5343 23.1657C13.3843 23.0157 13.3 22.8122 13.3 22.6C13.3245 22.4056 13.4195 22.227 13.5669 22.098C13.7144 21.9689 13.9041 21.8985 14.1 21.9H14.9C15.0959 21.8985 15.2856 21.9689 15.4331 22.098C15.5805 22.227 15.6755 22.4056 15.7 22.6C15.7 22.8122 15.6157 23.0157 15.4657 23.1657C15.3157 23.3158 15.1122 23.4 14.9 23.4Z" fill="white"/>
<path d="M14.9 14H0.8C0.604067 14.0015 0.414384 13.9311 0.266925 13.8021C0.119466 13.6731 0.0244863 13.4944 0 13.3C0 13.0878 0.0842858 12.8843 0.234315 12.7343C0.384344 12.5843 0.587827 12.5 0.8 12.5H14.9C15.1122 12.5 15.3157 12.5843 15.4657 12.7343C15.6157 12.8843 15.7 13.0878 15.7 13.3C15.6755 13.4944 15.5805 13.6731 15.4331 13.8021C15.2856 13.9311 15.0959 14.0015 14.9 14Z" fill="white"/>
<path d="M14.9 34.4001H11.8C11.5878 34.4001 11.3843 34.3158 11.2343 34.1658C11.0843 34.0157 11 33.8123 11 33.6001C10.9829 33.4911 10.9918 33.3797 11.026 33.2748C11.0601 33.1699 11.1186 33.0746 11.1966 32.9966C11.2746 32.9187 11.3699 32.8602 11.4747 32.8261C11.5796 32.7919 11.691 32.783 11.8 32.8001H14.9C15.1122 32.8001 15.3157 32.8844 15.4657 33.0344C15.6157 33.1844 15.7 33.3879 15.7 33.6001C15.6783 33.8048 15.587 33.9959 15.4414 34.1415C15.2958 34.2871 15.1047 34.3783 14.9 34.4001Z" fill="white"/>
<path d="M25.1 5.50002C25.5418 5.50002 25.9 5.14185 25.9 4.70002C25.9 4.2582 25.5418 3.90002 25.1 3.90002C24.6582 3.90002 24.3 4.2582 24.3 4.70002C24.3 5.14185 24.6582 5.50002 25.1 5.50002Z" fill="white"/>
<path d="M28.2 5.50002C28.6418 5.50002 29 5.14185 29 4.70002C29 4.2582 28.6418 3.90002 28.2 3.90002C27.7582 3.90002 27.4 4.2582 27.4 4.70002C27.4 5.14185 27.7582 5.50002 28.2 5.50002Z" fill="white"/>
<path d="M31.3 5.50002C31.7418 5.50002 32.1 5.14185 32.1 4.70002C32.1 4.2582 31.7418 3.90002 31.3 3.90002C30.8582 3.90002 30.5 4.2582 30.5 4.70002C30.5 5.14185 30.8582 5.50002 31.3 5.50002Z" fill="white"/>
<path d="M11 23.4H10.2C9.98782 23.4 9.78434 23.3158 9.63431 23.1657C9.48428 23.0157 9.39999 22.8122 9.39999 22.6C9.42448 22.4056 9.51946 22.227 9.66692 22.098C9.81438 21.9689 10.0041 21.8985 10.2 21.9H11C11.1959 21.8985 11.3856 21.9689 11.5331 22.098C11.6805 22.227 11.7755 22.4056 11.8 22.6C11.8 22.8122 11.7157 23.0157 11.5657 23.1657C11.4157 23.3158 11.2122 23.4 11 23.4Z" fill="white"/>
<path d="M6.3 23.4H5.5C5.28782 23.4 5.08434 23.3158 4.93431 23.1657C4.78428 23.0157 4.7 22.8122 4.7 22.6C4.72448 22.4056 4.81946 22.227 4.96692 22.098C5.11438 21.9689 5.30406 21.8985 5.5 21.9H6.3C6.49593 21.8985 6.68561 21.9689 6.83307 22.098C6.98053 22.227 7.07551 22.4056 7.1 22.6C7.1 22.8122 7.01571 23.0157 6.86568 23.1657C6.71565 23.3158 6.51217 23.4 6.3 23.4Z" fill="white"/>
<path d="M14.9 17.2H12.6C12.3878 17.2 12.1843 17.1157 12.0343 16.9657C11.8843 16.8156 11.8 16.6121 11.8 16.4C11.8 16.1878 11.8843 15.9843 12.0343 15.8343C12.1843 15.6843 12.3878 15.6 12.6 15.6H14.9C15.1122 15.6 15.3157 15.6843 15.4657 15.8343C15.6157 15.9843 15.7 16.1878 15.7 16.4C15.7 16.6121 15.6157 16.8156 15.4657 16.9657C15.3157 17.1157 15.1122 17.2 14.9 17.2Z" fill="white"/>
<path d="M10.2 17.2H9.40001C9.18783 17.2 8.98435 17.1157 8.83432 16.9657C8.68429 16.8156 8.60001 16.6121 8.60001 16.4C8.60001 16.1878 8.68429 15.9843 8.83432 15.8343C8.98435 15.6843 9.18783 15.6 9.40001 15.6H10.2C10.4122 15.6 10.6157 15.6843 10.7657 15.8343C10.9157 15.9843 11 16.1878 11 16.4C11 16.6121 10.9157 16.8156 10.7657 16.9657C10.6157 17.1157 10.4122 17.2 10.2 17.2Z" fill="white"/>
<path d="M7.09999 17.2H4.69999C4.48782 17.2 4.28434 17.1157 4.13431 16.9657C3.98428 16.8156 3.89999 16.6121 3.89999 16.4C3.89999 16.1878 3.98428 15.9843 4.13431 15.8343C4.28434 15.6843 4.48782 15.6 4.69999 15.6H7.09999C7.31217 15.6 7.51565 15.6843 7.66568 15.8343C7.81571 15.9843 7.89999 16.1878 7.89999 16.4C7.89999 16.6121 7.81571 16.8156 7.66568 16.9657C7.51565 17.1157 7.31217 17.2 7.09999 17.2Z" fill="white"/>
<path d="M79.7 32H72.7C72.4878 32 72.2843 31.9157 72.1343 31.7657C71.9843 31.6156 71.9 31.4122 71.9 31.2C71.9245 31.0056 72.0195 30.8269 72.1669 30.6979C72.3144 30.5689 72.5041 30.4984 72.7 30.5H79.7C79.7999 30.4856 79.9018 30.4929 79.9987 30.5216C80.0955 30.5502 80.185 30.5995 80.261 30.666C80.337 30.7325 80.3977 30.8146 80.4389 30.9068C80.4802 30.999 80.501 31.099 80.5 31.2C80.5171 31.3089 80.5082 31.4204 80.474 31.5253C80.4399 31.6301 80.3814 31.7254 80.3034 31.8034C80.2254 31.8814 80.1301 31.9398 80.0253 31.974C79.9204 32.0082 79.809 32.0171 79.7 32Z" fill="white"/>
<path d="M79.7 53.1001H72.7C72.4878 53.1001 72.2843 53.0158 72.1343 52.8658C71.9843 52.7157 71.9 52.5123 71.9 52.3001C71.9245 52.1057 72.0195 51.927 72.1669 51.798C72.3144 51.669 72.5041 51.5985 72.7 51.6001H79.7C79.7999 51.5857 79.9018 51.593 79.9987 51.6217C80.0955 51.6503 80.185 51.6996 80.261 51.7661C80.337 51.8326 80.3977 51.9147 80.4389 52.0069C80.4802 52.0991 80.501 52.1991 80.5 52.3001C80.5171 52.409 80.5082 52.5205 80.474 52.6254C80.4399 52.7302 80.3814 52.8255 80.3034 52.9035C80.2254 52.9815 80.1301 53.0399 80.0253 53.0741C79.9204 53.1083 79.809 53.1172 79.7 53.1001Z" fill="white"/>
<path d="M78.2 43.7001H72.7C72.5041 43.7016 72.3144 43.6312 72.1669 43.5022C72.0195 43.3731 71.9245 43.1945 71.9 43.0001C71.9 42.7879 71.9843 42.5844 72.1343 42.4344C72.2843 42.2844 72.4878 42.2001 72.7 42.2001H78.2C78.4122 42.2001 78.6156 42.2844 78.7657 42.4344C78.9157 42.5844 79 42.7879 79 43.0001C78.9755 43.1945 78.8805 43.3731 78.7331 43.5022C78.5856 43.6312 78.3959 43.7016 78.2 43.7001Z" fill="white"/>
<path d="M73.5 46.9H72.7C72.4953 46.8783 72.3042 46.7871 72.1586 46.6415C72.013 46.4959 71.9217 46.3048 71.9 46.1C71.9 45.8879 71.9843 45.6844 72.1343 45.5344C72.2843 45.3843 72.4878 45.3 72.7 45.3H73.5C73.7122 45.3 73.9157 45.3843 74.0657 45.5344C74.2157 45.6844 74.3 45.8879 74.3 46.1C74.2783 46.3048 74.187 46.4959 74.0414 46.6415C73.8958 46.7871 73.7047 46.8783 73.5 46.9Z" fill="white"/>
<path d="M86.8 37.5H72.7C72.4878 37.5 72.2843 37.4157 72.1343 37.2657C71.9843 37.1157 71.9 36.9122 71.9 36.7C71.9 36.4879 71.9843 36.2844 72.1343 36.1343C72.2843 35.9843 72.4878 35.9 72.7 35.9H86.8C87.0122 35.9 87.2157 35.9843 87.3657 36.1343C87.5157 36.2844 87.6 36.4879 87.6 36.7C87.6 36.9122 87.5157 37.1157 87.3657 37.2657C87.2157 37.4157 87.0122 37.5 86.8 37.5Z" fill="white"/>
<path d="M75.8 58.6H72.7C72.4878 58.6 72.2843 58.5157 72.1343 58.3657C71.9843 58.2157 71.9 58.0122 71.9 57.8C71.9 57.5878 71.9843 57.3843 72.1343 57.2343C72.2843 57.0843 72.4878 57 72.7 57H75.8C76.0122 57 76.2157 57.0843 76.3657 57.2343C76.5157 57.3843 76.6 57.5878 76.6 57.8C76.6 58.0122 76.5157 58.2157 76.3657 58.3657C76.2157 58.5157 76.0122 58.6 75.8 58.6Z" fill="white"/>
<path d="M79 46.9001H76.6C76.3953 46.8784 76.2042 46.7871 76.0586 46.6415C75.913 46.4959 75.8217 46.3048 75.8 46.1001C75.8 45.8879 75.8843 45.6844 76.0343 45.5344C76.1843 45.3844 76.3878 45.3001 76.6 45.3001H79C79.101 45.299 79.201 45.3199 79.2932 45.3611C79.3853 45.4024 79.4675 45.4631 79.534 45.5391C79.6005 45.6151 79.6498 45.7046 79.6784 45.8014C79.7071 45.8983 79.7144 46.0001 79.7 46.1001C79.7015 46.296 79.6311 46.4857 79.5021 46.6332C79.3731 46.7806 79.1944 46.8756 79 46.9001Z" fill="white"/>
<path d="M82.1 46.9H81.3C81.0953 46.8783 80.9042 46.7871 80.7586 46.6415C80.613 46.4959 80.5217 46.3048 80.5 46.1C80.5 45.8879 80.5843 45.6844 80.7343 45.5344C80.8843 45.3843 81.0878 45.3 81.3 45.3H82.1C82.3122 45.3 82.5157 45.3843 82.6657 45.5344C82.8157 45.6844 82.9 45.8879 82.9 46.1C82.8783 46.3048 82.787 46.4959 82.6414 46.6415C82.4958 46.7871 82.3047 46.8783 82.1 46.9Z" fill="white"/>
<path d="M73.5 40.6H72.7C72.4878 40.6 72.2843 40.5157 72.1343 40.3657C71.9843 40.2157 71.9 40.0122 71.9 39.8C71.9217 39.5953 72.013 39.4042 72.1586 39.2586C72.3042 39.113 72.4953 39.0217 72.7 39H73.5C73.7047 39.0217 73.8958 39.113 74.0414 39.2586C74.187 39.4042 74.2783 39.5953 74.3 39.8C74.3 40.0122 74.2157 40.2157 74.0657 40.3657C73.9157 40.5157 73.7122 40.6 73.5 40.6Z" fill="white"/>
<path d="M79 40.6H76.6C76.3878 40.6 76.1843 40.5157 76.0343 40.3657C75.8843 40.2157 75.8 40.0122 75.8 39.8C75.8217 39.5953 75.913 39.4042 76.0586 39.2586C76.2042 39.113 76.3953 39.0217 76.6 39H79C79.1944 39.0245 79.3731 39.1195 79.5021 39.2669C79.6311 39.4144 79.7015 39.6041 79.7 39.8C79.7144 39.8999 79.7071 40.0018 79.6784 40.0987C79.6498 40.1955 79.6005 40.285 79.534 40.361C79.4675 40.437 79.3853 40.4977 79.2932 40.539C79.201 40.5802 79.101 40.601 79 40.6Z" fill="white"/>
<path d="M83.6 40.6H81.3C81.0878 40.6 80.8843 40.5157 80.7343 40.3657C80.5843 40.2157 80.5 40.0122 80.5 39.8C80.5217 39.5953 80.613 39.4042 80.7586 39.2586C80.9042 39.113 81.0953 39.0217 81.3 39H83.6C83.8122 39 84.0157 39.0843 84.1657 39.2343C84.3157 39.3843 84.4 39.5878 84.4 39.8C84.4171 39.909 84.4082 40.0204 84.374 40.1253C84.3399 40.2301 84.2814 40.3254 84.2034 40.4034C84.1254 40.4814 84.0301 40.5399 83.9253 40.574C83.8204 40.6082 83.709 40.6171 83.6 40.6Z" fill="white"/>
<path d="M40.7 45.3001H40.4C40.2161 45.2142 40.0667 45.0686 39.9759 44.8871C39.8851 44.7056 39.8584 44.4987 39.9 44.3001L46.2 25.5001C46.2684 25.3026 46.4113 25.1398 46.5982 25.0464C46.785 24.9529 47.001 24.9363 47.2 25.0001C47.3839 25.0859 47.5334 25.2315 47.6241 25.413C47.7149 25.5945 47.7416 25.8014 47.7 26.0001L41.4 44.8001C41.3431 44.9414 41.2469 45.0636 41.1229 45.1521C40.9989 45.2407 40.8522 45.292 40.7 45.3001Z" fill="white"/>
<path d="M52.4 40.6L51.8 40.4C51.6593 40.2514 51.5809 40.0546 51.5809 39.85C51.5809 39.6454 51.6593 39.4486 51.8 39.3L56.8 34.4L51.8 29.4C51.6968 29.3368 51.6093 29.2511 51.5441 29.1492C51.4788 29.0474 51.4375 28.9321 51.4233 28.8119C51.409 28.6918 51.4222 28.57 51.4618 28.4557C51.5015 28.3414 51.5665 28.2376 51.652 28.152C51.7376 28.0665 51.8414 28.0015 51.9557 27.9619C52.07 27.9222 52.1918 27.909 52.3119 27.9233C52.432 27.9375 52.5474 27.9788 52.6492 28.0441C52.7511 28.1093 52.8368 28.1968 52.9 28.3L58.4 33.8C58.5407 33.9486 58.6191 34.1454 58.6191 34.35C58.6191 34.5546 58.5407 34.7514 58.4 34.9L52.9 40.4L52.4 40.6Z" fill="white"/>
<path d="M35.2 40.6L34.7 40.4L29.2 34.9C29.0593 34.7514 28.9809 34.5546 28.9809 34.35C28.9809 34.1454 29.0593 33.9486 29.2 33.8L34.7 28.3C34.7632 28.1968 34.8489 28.1093 34.9508 28.0441C35.0526 27.9788 35.168 27.9375 35.2881 27.9233C35.4082 27.909 35.53 27.9222 35.6443 27.9619C35.7586 28.0015 35.8624 28.0665 35.948 28.152C36.0335 28.2376 36.0985 28.3414 36.1382 28.4557C36.1778 28.57 36.191 28.6918 36.1767 28.8119C36.1625 28.9321 36.1212 29.0474 36.0559 29.1492C35.9907 29.2511 35.9032 29.3368 35.8 29.4L30.8 34.4L35.8 39.3C35.9407 39.4486 36.019 39.6454 36.019 39.85C36.019 40.0546 35.9407 40.2514 35.8 40.4L35.2 40.6Z" fill="white"/>
<path d="M74.9 27.7C74.6025 27.7003 74.308 27.6403 74.0343 27.5235C73.7607 27.4067 73.5136 27.2357 73.3079 27.0207C73.1023 26.8057 72.9424 26.5512 72.8379 26.2726C72.7334 25.9941 72.6865 25.6972 72.7 25.4V23C72.7 22.5 72.5 22.1 72 22.1V21.1C72.5 21.1 72.7 20.6 72.7 20.1V17.7C72.7 17.1165 72.9318 16.5569 73.3444 16.1444C73.7569 15.7318 74.3165 15.5 74.9 15.5H75.7V16.7H74.9C74.7729 16.6992 74.6471 16.7254 74.5308 16.7767C74.4146 16.8281 74.3105 16.9034 74.2255 16.9979C74.1404 17.0924 74.0764 17.2038 74.0375 17.3248C73.9987 17.4458 73.9859 17.5737 74 17.7V20.3C74.0262 20.5506 73.9844 20.8037 73.8788 21.0325C73.7732 21.2613 73.6078 21.4574 73.4 21.6C73.6082 21.7175 73.7765 21.8945 73.8834 22.1083C73.9903 22.3221 74.0309 22.563 74 22.8V25.4C73.9862 25.5314 73.9986 25.6643 74.0364 25.7909C74.0743 25.9176 74.1369 26.0354 74.2206 26.1377C74.3043 26.24 74.4074 26.3247 74.524 26.3869C74.6406 26.4491 74.7684 26.4875 74.9 26.5H75.7V27.7H74.9Z" fill="white"/>
<path d="M80.6 27.7001V26.5001H81.4C81.5316 26.4876 81.6594 26.4491 81.776 26.3869C81.8926 26.3247 81.9957 26.2401 82.0794 26.1378C82.1631 26.0355 82.2257 25.9176 82.2636 25.791C82.3014 25.6644 82.3138 25.5315 82.3 25.4001V22.8001C82.2608 22.55 82.3091 22.2942 82.4366 22.0756C82.5641 21.857 82.7631 21.689 83 21.6001C82.7652 21.4799 82.5726 21.2913 82.4475 21.0591C82.3225 20.8269 82.2711 20.5622 82.3 20.3001V17.7001C82.3141 17.5738 82.3013 17.4459 82.2625 17.3249C82.2236 17.2039 82.1596 17.0924 82.0745 16.998C81.9895 16.9035 81.8855 16.8281 81.7692 16.7768C81.6529 16.7254 81.5271 16.6993 81.4 16.7001H80.6V15.5001H81.4C81.6927 15.4858 81.9851 15.5329 82.2585 15.6384C82.5319 15.7439 82.7802 15.9054 82.9874 16.1126C83.1946 16.3198 83.3562 16.5681 83.4617 16.8415C83.5672 17.1149 83.6143 17.4074 83.6 17.7001V20.1001C83.6 20.6001 83.8 21.1001 84.3 21.1001V22.1001C83.8 22.1001 83.6 22.5001 83.6 23.0001V25.4001C83.6135 25.6973 83.5666 25.9941 83.4621 26.2727C83.3576 26.5513 83.1977 26.8058 82.9921 27.0208C82.7864 27.2358 82.5393 27.4068 82.2657 27.5236C81.992 27.6403 81.6975 27.7004 81.4 27.7001H80.6Z" fill="white"/>
</svg>
