<svg width="69" height="66" viewBox="0 0 69 66" fill="none" xmlns="http://www.w3.org/2000/svg">
<path d="M53.3081 21.5495C54.5754 21.5495 55.6064 20.5185 55.6064 19.2512C55.6064 17.9839 54.5754 16.9524 53.3081 16.9524C52.0408 16.9524 51.0098 17.9839 51.0098 19.2512C51.0098 20.5185 52.0408 21.5495 53.3081 21.5495ZM53.3081 18.0139C53.9902 18.0139 54.5448 18.5691 54.5448 19.2512C54.5448 19.9333 53.9902 20.4879 53.3081 20.4879C52.626 20.4879 52.0714 19.9333 52.0714 19.2512C52.0714 18.5691 52.626 18.0139 53.3081 18.0139Z" fill="white"/>
<path d="M47.2255 21.5495C48.4928 21.5495 49.5238 20.5185 49.5238 19.2512C49.5238 17.9839 48.4928 16.9524 47.2255 16.9524C45.9582 16.9524 44.9267 17.9839 44.9267 19.2512C44.9267 20.5185 45.9582 21.5495 47.2255 21.5495ZM47.2255 18.0139C47.9076 18.0139 48.4622 18.5691 48.4622 19.2512C48.4622 19.9333 47.9076 20.4879 47.2255 20.4879C46.5434 20.4879 45.9882 19.9333 45.9882 19.2512C45.9882 18.5691 46.5434 18.0139 47.2255 18.0139Z" fill="white"/>
<path d="M23.5539 21.3069H42.5942C42.8876 21.3069 43.125 21.0695 43.125 20.7761C43.125 20.4828 42.8876 20.2454 42.5942 20.2454H23.5539C23.2605 20.2454 23.0231 20.4828 23.0231 20.7761C23.0231 21.0695 23.2605 21.3069 23.5539 21.3069Z" fill="white"/>
<path d="M23.6182 18.2571H42.6585C42.9519 18.2571 43.1893 18.0197 43.1893 17.7263C43.1893 17.433 42.9519 17.1956 42.6585 17.1956H23.6182C23.3248 17.1956 23.0874 17.433 23.0874 17.7263C23.0874 18.0197 23.3248 18.2571 23.6182 18.2571Z" fill="white"/>
<path d="M20.4885 21.5495C20.7819 21.5495 21.0193 21.3121 21.0193 21.0188V17.7263C21.0193 17.433 20.7819 17.1956 20.4885 17.1956C20.1952 17.1956 19.9578 17.433 19.9578 17.7263V21.0188C19.9578 21.3121 20.1952 21.5495 20.4885 21.5495Z" fill="white"/>
<path d="M17.2272 21.5495C17.5206 21.5495 17.7579 21.3121 17.7579 21.0188V17.7263C17.7579 17.433 17.5206 17.1956 17.2272 17.1956C16.9338 17.1956 16.6964 17.433 16.6964 17.7263V21.0188C16.6964 21.3121 16.9338 21.5495 17.2272 21.5495Z" fill="white"/>
<path d="M13.9658 17.1956C13.6725 17.1956 13.4351 17.433 13.4351 17.7263V21.0188C13.4351 21.3121 13.6725 21.5495 13.9658 21.5495C14.2592 21.5495 14.4966 21.3121 14.4966 21.0188V17.7263C14.4966 17.433 14.2592 17.1956 13.9658 17.1956Z" fill="white"/>
<path d="M51.0098 32.4189C51.0098 33.6862 52.0408 34.7171 53.3081 34.7171C54.5754 34.7171 55.6064 33.6862 55.6064 32.4189C55.6064 31.1516 54.5754 30.1206 53.3081 30.1206C52.0408 30.1206 51.0098 31.1516 51.0098 32.4189ZM53.3081 33.6556C52.626 33.6556 52.0714 33.101 52.0714 32.4189C52.0714 31.7368 52.626 31.1821 53.3081 31.1821C54.9448 31.1821 54.9434 33.6556 53.3081 33.6556Z" fill="white"/>
<path d="M47.2255 30.1206C45.9582 30.1206 44.9267 31.1516 44.9267 32.4189C44.9267 33.6862 45.9582 34.7171 47.2255 34.7171C48.4928 34.7171 49.5238 33.6862 49.5238 32.4189C49.5238 31.1516 48.4928 30.1206 47.2255 30.1206ZM47.2255 33.6556C46.5434 33.6556 45.9882 33.101 45.9882 32.4189C45.9882 31.7368 46.5434 31.1821 47.2255 31.1821C47.9076 31.1821 48.4622 31.7368 48.4622 32.4189C48.4622 33.101 47.9076 33.6556 47.2255 33.6556Z" fill="white"/>
<path d="M42.5942 33.4131H23.5539C23.2605 33.4131 23.0231 33.6505 23.0231 33.9439C23.0231 34.2372 23.2605 34.4746 23.5539 34.4746H42.5942C42.8876 34.4746 43.125 34.2372 43.125 33.9439C43.125 33.6505 42.8876 33.4131 42.5942 33.4131Z" fill="white"/>
<path d="M42.6585 30.3633H23.6182C23.3248 30.3633 23.0874 30.6007 23.0874 30.8941C23.0874 31.1874 23.3248 31.4248 23.6182 31.4248H42.6585C42.9519 31.4248 43.1893 31.1874 43.1893 30.8941C43.1893 30.6007 42.9519 30.3633 42.6585 30.3633Z" fill="white"/>
<path d="M20.4885 30.3633C20.1952 30.3633 19.9578 30.6007 19.9578 30.8941V34.1865C19.9578 34.4799 20.1952 34.7172 20.4885 34.7172C20.7819 34.7172 21.0193 34.4799 21.0193 34.1865V30.8941C21.0193 30.6007 20.7819 30.3633 20.4885 30.3633Z" fill="white"/>
<path d="M17.2272 30.3633C16.9338 30.3633 16.6964 30.6007 16.6964 30.8941V34.1865C16.6964 34.4799 16.9338 34.7172 17.2272 34.7172C17.5206 34.7172 17.7579 34.4799 17.7579 34.1865V30.8941C17.7579 30.6007 17.5206 30.3633 17.2272 30.3633Z" fill="white"/>
<path d="M13.9658 30.3633C13.6725 30.3633 13.4351 30.6007 13.4351 30.8941V34.1865C13.4351 34.4799 13.6725 34.7172 13.9658 34.7172C14.2592 34.7172 14.4966 34.4799 14.4966 34.1865V30.8941C14.4966 30.6007 14.2592 30.3633 13.9658 30.3633Z" fill="white"/>
<path d="M51.0098 45.5866C51.0098 46.8539 52.0408 47.8849 53.3081 47.8849C54.5754 47.8849 55.6064 46.8539 55.6064 45.5866C55.6064 44.3193 54.5754 43.2883 53.3081 43.2883C52.0408 43.2883 51.0098 44.3193 51.0098 45.5866ZM54.5448 45.5866C54.5448 46.2687 53.9902 46.8233 53.3081 46.8233C52.626 46.8233 52.0714 46.2687 52.0714 45.5866C52.0714 44.9045 52.626 44.3499 53.3081 44.3499C53.9902 44.3499 54.5448 44.9045 54.5448 45.5866Z" fill="white"/>
<path d="M47.2255 43.2883C45.9582 43.2883 44.9267 44.3193 44.9267 45.5866C44.9267 46.8539 45.9582 47.8849 47.2255 47.8849C48.4928 47.8849 49.5238 46.8539 49.5238 45.5866C49.5238 44.3193 48.4928 43.2883 47.2255 43.2883ZM47.2255 46.8233C46.5434 46.8233 45.9882 46.2687 45.9882 45.5866C45.9882 44.9045 46.5434 44.3499 47.2255 44.3499C47.9076 44.3499 48.4622 44.9045 48.4622 45.5866C48.4622 46.2687 47.9076 46.8233 47.2255 46.8233Z" fill="white"/>
<path d="M42.5942 46.5808H23.5539C23.2605 46.5808 23.0231 46.8182 23.0231 47.1116C23.0231 47.405 23.2605 47.6423 23.5539 47.6423H42.5942C42.8876 47.6423 43.125 47.405 43.125 47.1116C43.125 46.8182 42.8876 46.5808 42.5942 46.5808Z" fill="white"/>
<path d="M42.6585 43.5308H23.6182C23.3248 43.5308 23.0874 43.7682 23.0874 44.0615C23.0874 44.3549 23.3248 44.5923 23.6182 44.5923H42.6585C42.9519 44.5923 43.1893 44.3549 43.1893 44.0615C43.1893 43.7682 42.9519 43.5308 42.6585 43.5308Z" fill="white"/>
<path d="M20.4885 43.5308C20.1952 43.5308 19.9578 43.7682 19.9578 44.0615V47.354C19.9578 47.6473 20.1952 47.8847 20.4885 47.8847C20.7819 47.8847 21.0193 47.6473 21.0193 47.354V44.0615C21.0193 43.7682 20.7819 43.5308 20.4885 43.5308Z" fill="white"/>
<path d="M17.2272 43.5308C16.9338 43.5308 16.6964 43.7682 16.6964 44.0615V47.354C16.6964 47.6473 16.9338 47.8847 17.2272 47.8847C17.5206 47.8847 17.7579 47.6473 17.7579 47.354V44.0615C17.7579 43.7682 17.5206 43.5308 17.2272 43.5308Z" fill="white"/>
<path d="M13.9658 43.5308C13.6725 43.5308 13.4351 43.7682 13.4351 44.0615V47.354C13.4351 47.6473 13.6725 47.8847 13.9658 47.8847C14.2592 47.8847 14.4966 47.6473 14.4966 47.354V44.0615C14.4966 43.7682 14.2592 43.5308 13.9658 43.5308Z" fill="white"/>
<path d="M59.6752 2.08105C59.3819 2.08105 59.1445 2.31845 59.1445 2.61182V2.9223C59.1445 3.21568 59.3819 3.45307 59.6752 3.45307C59.9686 3.45307 60.206 3.21568 60.206 2.9223V2.61182C60.206 2.31845 59.9686 2.08105 59.6752 2.08105Z" fill="white"/>
<path d="M62.1378 3.94507C61.8445 3.94507 61.6071 4.18246 61.6071 4.47584V4.78632C61.6071 5.07969 61.8445 5.31709 62.1378 5.31709C62.4312 5.31709 62.6686 5.07969 62.6686 4.78632V4.47584C62.6686 4.18246 62.4312 3.94507 62.1378 3.94507Z" fill="white"/>
<path d="M9.36622 3.45307C9.65959 3.45307 9.89699 3.21568 9.89699 2.9223V2.61182C9.89699 2.31845 9.65959 2.08105 9.36622 2.08105C9.07284 2.08105 8.83545 2.31845 8.83545 2.61182V2.9223C8.83545 3.21568 9.07284 3.45307 9.36622 3.45307Z" fill="white"/>
<path d="M6.90363 5.31709C7.19701 5.31709 7.4344 5.07969 7.4344 4.78632V4.47584C7.4344 4.18246 7.19701 3.94507 6.90363 3.94507C6.61026 3.94507 6.37286 4.18246 6.37286 4.47584V4.78632C6.37286 5.07969 6.61026 5.31709 6.90363 5.31709Z" fill="white"/>
<path d="M59.6752 61.7568C59.3819 61.7568 59.1445 61.9942 59.1445 62.2876V62.5981C59.1445 62.8915 59.3819 63.1289 59.6752 63.1289C59.9686 63.1289 60.206 62.8915 60.206 62.5981V62.2876C60.206 61.9942 59.9686 61.7568 59.6752 61.7568Z" fill="white"/>
<path d="M62.1378 59.8931C61.8445 59.8931 61.6071 60.1305 61.6071 60.4238V60.7343C61.6071 61.0277 61.8445 61.2651 62.1378 61.2651C62.4312 61.2651 62.6686 61.0277 62.6686 60.7343V60.4238C62.6686 60.1305 62.4312 59.8931 62.1378 59.8931Z" fill="white"/>
<path d="M9.36622 63.1289C9.65959 63.1289 9.89699 62.8915 9.89699 62.5981V62.2876C9.89699 61.9942 9.65959 61.7568 9.36622 61.7568C9.07284 61.7568 8.83545 61.9942 8.83545 62.2876V62.5981C8.83545 62.8915 9.07284 63.1289 9.36622 63.1289Z" fill="white"/>
<path d="M6.90363 61.2651C7.19701 61.2651 7.4344 61.0277 7.4344 60.7343V60.4238C7.4344 60.1305 7.19701 59.8931 6.90363 59.8931C6.61026 59.8931 6.37286 60.1305 6.37286 60.4238V60.7343C6.37286 61.0277 6.61026 61.2651 6.90363 61.2651Z" fill="white"/>
<path d="M66.0875 41.7136V34.8566C66.0875 34.5632 65.8501 34.3258 65.5567 34.3258H58.2073V30.512H65.5567C65.8501 30.512 66.0875 30.2746 66.0875 29.9812V23.1242C67.7344 22.8677 69 21.4438 69 19.7261C69 17.8274 67.4554 16.2828 65.5567 16.2828C63.6581 16.2828 62.1135 17.8274 62.1135 19.7261C62.1135 21.4438 63.3791 22.8677 65.026 23.1242V29.4504H58.2073C58.091 28.2372 58.5378 26.9744 57.6766 26.9744H54.3054V24.6953H57.6766C57.97 24.6953 58.2073 24.4579 58.2073 24.1645V14.3375C58.2073 14.0441 57.97 13.8067 57.6766 13.8067H41.9733V4.22957H57.2101V6.86735C57.2101 7.16072 57.4475 7.39811 57.7408 7.39811H64.0717C64.3651 7.39811 64.6025 7.16072 64.6025 6.86735V0.530769C64.6025 0.237395 64.3651 0 64.0717 0H57.7408C57.4475 0 57.2101 0.237395 57.2101 0.530769V3.16803H41.4425C41.1491 3.16803 40.9117 3.40542 40.9117 3.6988V13.8067H28.1297V3.6988C28.1297 3.40542 27.8923 3.16803 27.599 3.16803H11.8314V0.530769C11.8314 0.237395 11.594 0 11.3006 0H4.96974C4.67637 0 4.43897 0.237395 4.43897 0.530769V6.86735C4.43897 7.16072 4.67637 7.39811 4.96974 7.39811H11.3006C11.594 7.39811 11.8314 7.16072 11.8314 6.86735V4.22957H27.0682V13.8067H11.3649C11.0715 13.8067 10.8341 14.0441 10.8341 14.3375V24.1645C10.8341 24.4579 11.0715 24.6953 11.3649 24.6953H14.7361V26.9744H11.3649C11.0715 26.9744 10.8341 27.2118 10.8341 27.5051V29.4504H3.97403V23.1242C5.62092 22.8677 6.88652 21.4438 6.88652 19.7261C6.88652 17.8274 5.3419 16.2828 3.44326 16.2828C1.54462 16.2828 0 17.8274 0 19.7261C0 21.4438 1.2656 22.8677 2.91249 23.1242C3.11111 29.3051 2.47553 30.512 3.44326 30.512H10.8341V34.3258C4.11084 34.5273 2.91249 33.8846 2.91249 34.8566V41.7136C1.2656 41.9702 0 43.394 0 45.1118C0 47.0104 1.54462 48.555 3.44326 48.555C5.3419 48.555 6.88652 47.0104 6.88652 45.1118C6.88652 43.394 5.62092 41.9702 3.97403 41.7136V35.3874H10.8341V37.3321C10.8341 37.6255 11.0715 37.8629 11.3649 37.8629H14.7361V40.142H11.3649C11.0715 40.142 10.8341 40.3794 10.8341 40.6728V50.5003C10.8341 50.7937 11.0715 51.0311 11.3649 51.0311H27.0682V60.9804H11.8314V58.3426C11.8314 58.0493 11.594 57.8119 11.3006 57.8119H4.96974C4.67637 57.8119 4.43897 58.0493 4.43897 58.3426V64.6792C4.43897 64.9726 4.67637 65.21 4.96974 65.21H11.3006C11.594 65.21 11.8314 64.9726 11.8314 64.6792V62.0419H27.599C27.8923 62.0419 28.1297 61.8046 28.1297 61.5112V51.0311H40.9117V61.5112C40.9117 61.8046 41.1491 62.0419 41.4425 62.0419H57.2101V64.6792C57.2101 64.9726 57.4475 65.21 57.7408 65.21H64.0717C64.3651 65.21 64.6025 64.9726 64.6025 64.6792V58.3426C64.6025 58.0493 64.3651 57.8119 64.0717 57.8119H57.7408C57.4475 57.8119 57.2101 58.0493 57.2101 58.3426V60.9804H41.9733V51.0311H57.6766C57.97 51.0311 58.2073 50.7937 58.2073 50.5003C57.9975 41.343 58.6827 40.142 57.6766 40.142H54.3054V37.8629H57.6766C58.5444 37.8629 58.0953 36.5557 58.2073 35.3874H65.026V41.7136C63.3791 41.9702 62.1135 43.394 62.1135 45.1118C62.1135 47.0104 63.6581 48.555 65.5567 48.555C67.4554 48.555 69 47.0104 69 45.1118C69 43.394 67.7344 41.9702 66.0875 41.7136ZM63.175 19.7261C63.175 18.4126 64.2433 17.3443 65.5567 17.3443C66.8702 17.3443 67.9385 18.4126 67.9385 19.7261C67.9385 21.0395 66.8702 22.1078 65.5567 22.1078C64.2433 22.1078 63.175 21.0395 63.175 19.7261ZM58.2716 1.06154H63.541V6.33658H58.2716V1.06154ZM10.7698 6.33658H5.50051V1.06154H10.7698V6.33658ZM1.06154 19.7261C1.06154 18.4126 2.12982 17.3443 3.44326 17.3443C4.75671 17.3443 5.82499 18.4126 5.82499 19.7261C5.82499 21.0395 4.75671 22.1078 3.44326 22.1078C2.12982 22.1078 1.06154 21.0395 1.06154 19.7261ZM5.82499 45.1118C5.82499 46.4252 4.75671 47.4935 3.44326 47.4935C2.12982 47.4935 1.06154 46.4252 1.06154 45.1118C1.06154 43.7983 2.12982 42.73 3.44326 42.73C4.75671 42.73 5.82499 43.7983 5.82499 45.1118ZM10.7698 64.1484H5.50051V58.8734H10.7698V64.1484ZM58.2716 58.8734H63.541V64.1484H58.2716V58.8734ZM11.8957 14.8683H57.1458V23.6337H11.8957V14.8683ZM15.7976 24.6953H53.2438V26.9744H15.7976V24.6953ZM57.1458 49.9695H11.8957V41.2036H57.1458V49.9695ZM53.2438 40.142H15.7976V37.8629H53.2438V40.142ZM57.1458 36.8014H11.8957V28.0359H57.1458V36.8014ZM65.5567 47.4935C64.2433 47.4935 63.175 46.4252 63.175 45.1118C63.175 43.7983 64.2433 42.73 65.5567 42.73C66.8702 42.73 67.9385 43.7983 67.9385 45.1118C67.9385 46.4252 66.8702 47.4935 65.5567 47.4935Z" fill="white"/>
</svg>
