<svg width="43" height="68" viewBox="0 0 43 68" fill="none" xmlns="http://www.w3.org/2000/svg">
<path d="M3.61474 59.1907H38.7589C39.051 59.1907 39.2873 58.9543 39.2873 58.6622V8.98478C39.2873 8.69267 39.051 8.4563 38.7589 8.4563H3.61474C3.32263 8.4563 3.08626 8.69267 3.08626 8.98478V58.6622C3.08626 58.9543 3.32263 59.1907 3.61474 59.1907ZM4.14322 9.51326H38.2304V58.1337H4.14322V9.51326Z" fill="white"/>
<path d="M17.6417 5.28487H24.7319C25.024 5.28487 25.2603 5.0485 25.2603 4.75639C25.2603 4.46427 25.024 4.22791 24.7319 4.22791H17.6417C17.3496 4.22791 17.1133 4.46427 17.1133 4.75639C17.1133 5.0485 17.3496 5.28487 17.6417 5.28487Z" fill="white"/>
<path d="M27.3965 5.28487H28.3652C28.6573 5.28487 28.8937 5.0485 28.8937 4.75639C28.8937 4.46427 28.6573 4.22791 28.3652 4.22791H27.3965C27.1044 4.22791 26.868 4.46427 26.868 4.75639C26.868 5.0485 27.1044 5.28487 27.3965 5.28487Z" fill="white"/>
<path d="M21.1801 60.2982C19.7588 60.2982 18.6022 61.4605 18.6022 62.8895C18.6022 64.3186 19.7588 65.4809 21.1801 65.4809C22.6092 65.4809 23.7714 64.3186 23.7714 62.8895C23.7714 61.4605 22.6092 60.2982 21.1801 60.2982ZM21.1801 64.4239C20.3414 64.4239 19.6592 63.7354 19.6592 62.8895C19.6592 62.0437 20.3414 61.3552 21.1801 61.3552C22.026 61.3552 22.7144 62.0437 22.7144 62.8895C22.7144 63.7354 22.026 64.4239 21.1801 64.4239Z" fill="white"/>
<path d="M0.528483 23.5577V63.9464C0.528483 65.986 2.18825 67.6458 4.22786 67.6458H38.1457C40.1853 67.6458 41.8451 65.986 41.8451 63.9464V21.3009C42.1372 21.3009 42.3736 21.0645 42.3736 20.7724V14.4306C42.3736 14.1385 42.1372 13.9021 41.8451 13.9021V3.69938C41.8451 1.65976 40.1853 0 38.1457 0H4.22786C2.18825 0 0.528483 1.65976 0.528483 3.69938V11.6447C0.236369 11.6447 0 11.8811 0 12.1732V16.6875C0 16.9796 0.236369 17.216 0.528483 17.216V17.9865C0.236369 17.9865 0 18.2229 0 18.515V23.0293C0 23.3214 0.236369 23.5577 0.528483 23.5577ZM1.58545 3.69938C1.58545 2.24244 2.77092 1.05697 4.22786 1.05697H38.1457C39.6027 1.05697 40.7881 2.24244 40.7881 3.69938V63.9464C40.7881 65.4034 39.6027 66.5889 38.1457 66.5889H4.22786C2.77092 66.5889 1.58545 65.4034 1.58545 63.9464V3.69938Z" fill="white"/>
<path d="M21.1821 26.5439C17.168 26.5439 13.9026 29.8093 13.9026 33.823C13.9026 37.8372 17.168 41.1025 21.1821 41.1025C25.201 41.1025 28.471 37.8372 28.471 33.823C28.471 29.8093 25.201 26.5439 21.1821 26.5439ZM21.1821 40.0455C17.7511 40.0455 14.9596 37.254 14.9596 33.823C14.9596 30.3919 17.7511 27.6009 21.1821 27.6009C24.6183 27.6009 27.414 30.392 27.414 33.823C27.414 37.254 24.6183 40.0455 21.1821 40.0455Z" fill="white"/>
<path d="M33.9746 35.8325C33.2093 35.6173 32.6906 34.9232 32.7128 34.1444C32.7128 34.1392 32.7128 34.1345 32.7128 34.1294V33.459C32.7128 32.7019 33.2309 32.0289 33.9726 31.8235C34.1114 31.7848 34.2285 31.6913 34.2967 31.5644C34.3648 31.4374 34.3782 31.2883 34.3338 31.151L33.3956 28.2593C33.3507 28.1215 33.2516 28.0085 33.1215 27.946C32.9909 27.8836 32.8413 27.8769 32.705 27.9285C31.141 28.5263 29.9743 26.6099 29.9743 25.7697C29.9743 25.3908 30.1127 25.0027 30.3542 24.705C30.445 24.5919 30.4863 24.4469 30.4672 24.3034C30.4486 24.16 30.3717 24.0304 30.2546 23.9447L27.784 22.1441C27.6524 22.0486 27.4733 22.0429 27.3165 22.0878C27.1885 22.1245 27.0739 22.2246 27.0032 22.3423C26.579 22.9688 25.8012 23.232 25.1261 22.992C24.6577 22.8013 23.1732 22.6228 23.2424 21.0205C23.2424 20.7284 23.006 20.4921 22.7139 20.4921H19.6596C19.5151 20.4921 19.3773 20.5514 19.2772 20.6557C19.1776 20.7599 19.125 20.9008 19.1317 21.0448C19.2011 22.5503 17.7975 22.782 17.316 22.9652C16.5207 23.2506 15.7579 22.9156 15.342 22.2814C15.2625 22.1606 15.1371 22.0775 14.9946 22.0517C14.8527 22.0243 14.7056 22.0594 14.589 22.1441L12.1184 23.9447C12.0013 24.0304 11.9244 24.1594 11.9058 24.3034C11.8867 24.4464 11.9275 24.5914 12.0183 24.7039C13.1968 26.1623 11.2817 28.5416 9.67885 27.929C9.54415 27.8779 9.39397 27.8831 9.26288 27.945C9.1323 28.0075 9.03271 28.1205 8.98781 28.2578L8.04026 31.1495C7.99536 31.2867 8.00826 31.4359 8.07638 31.5634C8.14451 31.6903 8.26166 31.7843 8.40049 31.823C9.89043 32.2386 9.63618 33.7013 9.67009 34.1867C9.67009 35.666 8.29868 35.6761 8.07638 36.0921C8.00826 36.2191 7.99536 36.3687 8.04026 36.506L8.98781 39.3977C9.03322 39.536 9.13335 39.6496 9.26495 39.7115C9.39604 39.7729 9.54932 39.7776 9.68351 39.7249C11.2978 39.0879 13.1902 41.4698 12.0152 42.9557C11.9259 43.0687 11.8862 43.2132 11.9063 43.3557C11.9259 43.4981 12.0028 43.6266 12.1195 43.7113L14.59 45.5021C14.7067 45.5862 14.8615 45.6043 15.005 45.5795C15.1474 45.5537 15.2821 45.4557 15.3611 45.3349C16.1187 44.1799 17.2099 44.659 17.9385 44.8818C18.6827 45.1026 19.1771 45.7818 19.1405 46.6257C19.1405 46.9178 19.3768 47.1541 19.6689 47.1541H22.7139C22.8584 47.1541 22.9967 47.0612 23.0963 46.957C23.196 46.8522 23.2486 46.6778 23.2419 46.5333C23.174 45.1159 24.5575 44.8704 25.1081 44.6702C25.7919 44.4162 26.5939 44.6975 27.0321 45.3653C27.1116 45.4861 27.2365 45.5687 27.3784 45.594C27.5198 45.6218 27.6664 45.5867 27.783 45.5021L30.2536 43.7112C30.3707 43.6261 30.4481 43.4965 30.4672 43.3531C30.4863 43.2096 30.4456 43.0641 30.3547 42.9516C29.2518 41.5852 31.0133 39.0424 32.6937 39.7223C32.8304 39.7781 32.9832 39.7734 33.1158 39.7125C33.249 39.6506 33.3502 39.536 33.3956 39.3962L34.3338 36.5045C34.3782 36.3677 34.3648 36.2191 34.2972 36.0921C34.2291 35.9651 34.1129 35.8717 33.9746 35.8325ZM32.5461 38.589C30.2633 38.2081 28.1695 41.1222 29.2271 43.1502L27.5724 44.3491C26.8427 43.5874 25.7424 43.3128 24.7458 43.6772C23.7216 44.0491 22.4583 44.3338 22.2102 46.0972H20.1757C19.9149 44.1796 18.1438 43.8727 18.0381 43.8062C17.0963 43.5226 15.9187 43.2184 14.8053 44.3528L13.1429 43.1477C14.2497 41.0095 12.0638 38.2138 9.83576 38.591L9.19993 36.6505C11.266 35.6042 11.2603 32.0459 9.19993 31.0049L9.83783 29.0587C12.1102 29.4266 14.1949 26.5113 13.1455 24.5042L14.8063 23.2939C16.0582 24.5718 17.367 24.0272 18.2383 23.7775C19.2685 23.4746 20.0034 22.5967 20.1598 21.549H22.2061C22.4514 23.3999 24.1534 23.7473 24.2591 23.8152C25.2694 24.1137 26.4514 24.4742 27.5802 23.3037L29.2281 24.5047C28.1169 26.6448 30.3184 29.4338 32.5445 29.0618L33.1752 31.0044C32.2591 31.4689 31.6558 32.4139 31.6558 33.459V34.1221C31.6285 35.1982 32.2328 36.1731 33.1752 36.6505L32.5461 38.589Z" fill="white"/>
</svg>
