<svg width="67" height="67" viewBox="0 0 67 67" fill="none" xmlns="http://www.w3.org/2000/svg">
<path d="M66.1706 0H0.829385C0.371321 0 0 0.370033 0 0.827393V66.1726C0 66.6294 0.371321 67 0.829385 67H66.1706C66.6288 67 67 66.6296 67 66.1726V0.827393C67 0.370163 66.6289 0 66.1706 0ZM1.65877 1.65479H65.3414V65.3453H1.65877V1.65479Z" fill="white"/>
<path d="M66 58H1V56H66V58Z" fill="white"/>
<path d="M11 59H5V64H11V59ZM6.6451 60.6629H9.3549V62.3371H6.6451V60.6629Z" fill="white"/>
<path d="M20 59H14V64H20V59ZM15.6451 60.6629H18.3549V62.3371H15.6451V60.6629Z" fill="white"/>
<path d="M43.9087 23.1838C42.8338 23.1838 41.8245 22.7657 41.0667 22.0065C40.3064 21.2456 39.8877 20.2343 39.8877 19.159C39.8877 18.0852 40.3065 17.0747 41.0666 16.3141C41.8246 15.5537 42.834 15.135 43.9087 15.135C44.984 15.135 45.9941 15.5537 46.753 16.3139C47.5123 17.0744 47.9303 18.0849 47.9303 19.159C47.9303 20.2346 47.5121 21.2457 46.753 22.0065C45.9942 22.7659 44.9841 23.1838 43.9087 23.1838ZM46.7301 19.1601C46.7293 18.4062 46.4359 17.6977 45.9036 17.165C45.397 16.6579 44.6706 16.3672 43.9103 16.3672C43.1503 16.3672 42.4237 16.6579 41.9169 17.1652C41.3829 17.6988 41.0888 18.4072 41.0888 19.1599C41.0888 19.9121 41.3829 20.6212 41.917 21.1564C42.4482 21.6887 43.1557 21.982 43.9095 21.982C44.6636 21.982 45.3717 21.6887 45.9034 21.1565C46.4366 20.6213 46.7301 19.9122 46.7301 19.1601Z" fill="white"/>
<path d="M52.1342 19.1285C52.1403 20.5706 51.7675 21.9884 51.0525 23.2421L53.082 25.2731L50.0174 28.34L47.9911 26.3118C46.7484 27.0254 45.3396 27.402 43.9104 27.402C43.8988 27.402 43.8874 27.4016 43.8761 27.4011L43.1143 30.1572L38.9421 29.0061L39.7053 26.2409C39.105 25.8829 38.5608 25.4622 38.0862 24.9886C37.616 24.5178 37.196 23.9719 36.837 23.3651L34.0689 24.1303L32.921 19.9547L35.6841 19.1914C35.679 17.7508 36.0517 16.3338 36.7658 15.0803L34.7397 13.0501L37.802 9.98463L39.8281 12.0115C41.0728 11.2973 42.4821 10.9203 43.9107 10.9203C43.9211 10.9203 43.9314 10.9206 43.9417 10.9211L44.7031 8.16414L48.8737 9.31545L48.1116 12.0813C48.7147 12.44 49.2599 12.8616 49.7331 13.3353C50.2017 13.8038 50.6211 14.3487 50.9807 14.9566L53.7459 14.1912L54.8982 18.3653L52.1342 19.1285ZM53.4191 17.527L52.9074 15.6695L51.5277 16.0502C51.7671 16.6402 51.9377 17.2641 52.036 17.9085L53.4191 17.527ZM37.4505 14.0624C37.6792 13.7688 37.879 13.5405 38.087 13.3337C38.2984 13.1223 38.5323 12.917 38.8153 12.6952L37.802 11.6838L36.4391 13.0489L37.4505 14.0624ZM48.8827 14.1837C47.5543 12.8543 45.7885 12.1223 43.9106 12.1223C42.033 12.1223 40.2666 12.8545 38.9366 14.1837C36.1955 16.9278 36.1955 21.3927 38.9366 24.1367C40.2658 25.4661 42.0324 26.1983 43.9106 26.1983C45.7893 26.1983 47.5551 25.4661 48.8827 24.1367C51.6238 21.3927 51.6238 16.9278 48.8827 14.1837ZM50.3694 24.2587C50.1526 24.5356 49.9436 24.7749 49.7327 24.9881C49.5241 25.1959 49.2908 25.4008 49.0057 25.6258L50.0174 26.6384L51.383 25.2733L50.3694 24.2587ZM40.8007 26.7918L40.4218 28.1663L42.2772 28.6767L42.6568 27.2986C42.0155 27.2015 41.3924 27.0314 40.8007 26.7918ZM36.291 22.2678C36.0521 21.68 35.8815 21.0565 35.7829 20.4101L34.3976 20.7917L34.9084 22.6485L36.291 22.2678ZM47.0151 11.5284L47.3947 10.1524L45.5412 9.64055L45.16 11.0226C45.8043 11.1193 46.427 11.289 47.0151 11.5284Z" fill="white"/>
<path d="M24.015 30.058H24.0395C25.8102 30.0647 27.4721 30.7602 28.719 32.0165C29.9661 33.2735 30.6489 34.9409 30.642 36.7116C30.6296 40.3553 27.647 43.3196 23.9927 43.3196C22.2224 43.313 20.5613 42.6175 19.3152 41.3613C18.0677 40.1034 17.3844 38.4359 17.391 36.6661C17.4026 33.0224 20.3741 30.058 24.015 30.058ZM18.5921 36.6698C18.587 38.1189 19.1461 39.4842 20.1668 40.5138C21.1881 41.5426 22.5556 42.1119 24.0174 42.117C26.9968 42.1168 29.4297 39.6897 29.4407 36.7064C29.4463 35.2571 28.8868 33.8926 27.8655 32.864C26.8441 31.8346 25.4837 31.2649 24.0352 31.2601H24.0149C21.0351 31.2603 18.6024 33.6869 18.5921 36.6698Z" fill="white"/>
<path d="M32.9635 23.8335L36.927 27.8269L34.1171 30.6171C34.7345 31.6431 35.1886 32.752 35.4681 33.9163L39.4284 33.9302L39.4086 39.5559L35.4461 39.5417C35.156 40.6994 34.6914 41.8036 34.0639 42.8266L36.8624 45.6471L32.872 49.6061L30.0728 46.7839C29.051 47.4008 27.9461 47.8566 26.7861 48.1398L26.7722 52.115L21.1508 52.0947L21.1664 48.1269C20.0083 47.8374 18.905 47.3734 17.8838 46.7467L15.0644 49.5415L11.1078 45.5553L13.9247 42.757C13.3056 41.7306 12.8495 40.6224 12.5677 39.4601L8.60133 39.4475L8.62213 33.82L12.589 33.8339C12.8791 32.6765 13.3427 31.5736 13.9683 30.5524L11.1715 27.7347L15.1565 23.7692L17.9549 26.5911C18.9816 25.97 20.0885 25.5127 21.2478 25.2311L21.2621 21.2661L26.8835 21.2865L26.8697 25.2486C28.0307 25.5363 29.1364 25.9991 30.1588 26.6258L32.9635 23.8335ZM25.6774 22.4839L22.4595 22.4727L22.4496 25.0091C23.0321 24.928 23.5333 24.8901 24.0158 24.8901H24.0584C24.5556 24.8915 25.0703 24.9323 25.6671 25.0184L25.6774 22.4839ZM12.8709 27.74L14.6611 29.5435C15.3167 28.6859 16.0829 27.924 16.942 27.2754L15.1514 25.4699L12.8709 27.74ZM16.876 46.0547C16.0207 45.4007 15.2593 44.6336 14.61 43.7718L12.8075 45.5611L15.0714 47.8432L16.876 46.0547ZM35.1631 45.64L33.3698 43.8343C32.7146 44.6899 31.9472 45.4513 31.0857 46.1007L32.8783 47.9057L35.1631 45.64ZM31.1647 27.3199C31.6452 27.6866 32.035 28.024 32.3833 28.3739C32.7331 28.7272 33.0765 29.1303 33.4301 29.6033L35.2271 27.8192L32.9587 25.5339L31.1647 27.3199ZM24.0182 47.2849C29.8355 47.2848 34.5846 42.5482 34.6046 36.7261C34.615 33.8962 33.523 31.2313 31.5298 29.2225C29.5375 27.2133 26.8826 26.1017 24.0544 26.0921H24.016C18.1988 26.0921 13.4493 30.8288 13.4285 36.6508C13.4182 39.4783 14.5131 42.1418 16.5114 44.1507C18.5114 46.1615 21.1774 47.2746 24.0182 47.2849ZM25.5842 48.3648C24.987 48.4483 24.4723 48.4875 23.9753 48.4875C23.4813 48.4857 22.9541 48.4436 22.3683 48.3586L22.3573 50.8973L25.5751 50.9082L25.5842 48.3648ZM35.6755 38.3394L38.2116 38.3485L38.2206 35.1282L35.689 35.1198C35.7689 35.7077 35.8072 36.2361 35.8058 36.7307C35.8036 37.2305 35.7621 37.7451 35.6755 38.3394ZM12.3564 35.0368L9.81849 35.0269L9.8077 38.2485L12.3448 38.2572C12.2628 37.6593 12.225 37.1441 12.2264 36.6472C12.2278 36.152 12.2693 35.6368 12.3564 35.0368Z" fill="white"/>
<path d="M49.9088 49.6472H41.5114V47.9872H49.9088V49.6472Z" fill="white"/>
<path d="M57.6056 45.4453H41.5114V43.7853H57.6056V45.4453Z" fill="white"/>
<path d="M57.6056 41.2434H41.5114V39.5834H57.6056V41.2434Z" fill="white"/>
<path d="M26.8169 8.33105H18.42V6.67102H26.8169V8.33105Z" fill="white"/>
<path d="M26.817 12.533H10.7228V10.8728H26.817V12.533Z" fill="white"/>
<path d="M26.817 16.7346H10.7228V15.0747H26.817V16.7346Z" fill="white"/>
</svg>
