<svg width="50" height="66" viewBox="0 0 50 66" fill="none" xmlns="http://www.w3.org/2000/svg">
<path d="M26 31.899V52C26 54.7614 28.2386 57 31 57H34.0619C34.554 53.0537 37.9204 50 42 50C46.4183 50 50 53.5817 50 58C50 62.4183 46.4183 66 42 66C37.9204 66 34.554 62.9463 34.0619 59H31C27.134 59 24 55.866 24 52V14C24 11.2386 21.7614 9 19 9H15.9381C15.446 12.9463 12.0796 16 8 16C3.58172 16 0 12.4183 0 8C0 3.58172 3.58172 0 8 0C12.0796 0 15.446 3.05369 15.9381 7H19C22.866 7 26 10.134 26 14V27C26 29.7614 28.2386 32 31 32H34.0619C34.554 28.0537 37.9204 25 42 25C46.4183 25 50 28.5817 50 33C50 37.4183 46.4183 41 42 41C37.9204 41 34.554 37.9463 34.0619 34H31C29.0413 34 27.2705 33.1955 26 31.899ZM8 14C11.3137 14 14 11.3137 14 8C14 4.68629 11.3137 2 8 2C4.68629 2 2 4.68629 2 8C2 11.3137 4.68629 14 8 14ZM42 64C45.3137 64 48 61.3137 48 58C48 54.6863 45.3137 52 42 52C38.6863 52 36 54.6863 36 58C36 61.3137 38.6863 64 42 64ZM42 39C45.3137 39 48 36.3137 48 33C48 29.6863 45.3137 27 42 27C38.6863 27 36 29.6863 36 33C36 36.3137 38.6863 39 42 39Z" fill="white"/>
</svg>
